<!-- Placeholder SVG para categoría Accesorios -->
<svg width="300" height="300" viewBox="0 0 300 300" xmlns="http://www.w3.org/2000/svg">
  <!-- Fondo gradiente -->
  <defs>
    <linearGradient id="grad3" x1="0%" y1="0%" x2="100%" y2="100%">
      <stop offset="0%" style="stop-color:#ec4899;stop-opacity:1" />
      <stop offset="100%" style="stop-color:#be185d;stop-opacity:1" />
    </linearGradient>
  </defs>

  <rect width="300" height="300" fill="url(#grad3)"/>

  <!-- Patrón de fondo -->
  <g opacity="0.1">
    <rect x="40" y="40" width="15" height="15" rx="3" fill="white" transform="rotate(45 47.5 47.5)"/>
    <rect x="245" y="60" width="12" height="12" rx="2" fill="white" transform="rotate(45 251 66)"/>
    <rect x="60" y="235" width="12" height="12" rx="2" fill="white" transform="rotate(45 66 241)"/>
    <rect x="225" y="215" width="15" height="15" rx="3" fill="white" transform="rotate(45 232.5 222.5)"/>
  </g>

  <!-- Icono principal -->
  <g transform="translate(150, 150)">
    <!-- Bomba -->
    <rect x="-40" y="-25" width="12" height="50" rx="6" fill="white" opacity="0.9"/>
    <circle cx="-34" cy="-30" r="4" fill="white" opacity="0.7"/>
    <rect x="-37" y="-35" width="6" height="8" rx="3" fill="white" opacity="0.8"/>

    <!-- Candado -->
    <rect x="-10" y="-10" width="20" height="25" rx="3" fill="white" opacity="0.9"/>
    <path d="M-5 -10 Q-5 -20 0 -20 Q5 -20 5 -10" stroke="white" stroke-width="3" fill="none" opacity="0.8"/>
    <circle cx="0" cy="0" r="3" fill="#ec4899"/>

    <!-- Soporte -->
    <rect x="15" y="-20" width="8" height="40" rx="4" fill="white" opacity="0.9"/>
    <rect x="13" y="-25" width="12" height="6" rx="3" fill="white" opacity="0.7"/>
    <rect x="13" y="19" width="12" height="6" rx="3" fill="white" opacity="0.7"/>
  </g>

  <!-- Texto -->
  <text x="150" y="250" text-anchor="middle" fill="white" font-family="Arial, sans-serif" font-size="18" font-weight="bold">
    ACCESORIOS
  </text>
</svg>
