<!-- Placeholder SVG para categoría Herramientas -->
<svg width="300" height="300" viewBox="0 0 300 300" xmlns="http://www.w3.org/2000/svg">
  <!-- Fondo gradiente -->
  <defs>
    <linearGradient id="grad4" x1="0%" y1="0%" x2="100%" y2="100%">
      <stop offset="0%" style="stop-color:#14b8a6;stop-opacity:1" />
      <stop offset="100%" style="stop-color:#0f766e;stop-opacity:1" />
    </linearGradient>
  </defs>

  <rect width="300" height="300" fill="url(#grad4)"/>

  <!-- Patrón de fondo -->
  <g opacity="0.1">
    <path d="M50 50 L70 50 L60 70 Z" fill="white"/>
    <path d="M230 70 L250 70 L240 90 Z" fill="white"/>
    <path d="M70 230 L90 230 L80 250 Z" fill="white"/>
    <path d="M210 210 L230 210 L220 230 Z" fill="white"/>
  </g>

  <!-- Icono principal -->
  <g transform="translate(150, 150)">
    <!-- Llave inglesa -->
    <rect x="-45" y="-5" width="50" height="10" rx="5" fill="white" opacity="0.9"/>
    <rect x="-50" y="-8" width="15" height="16" rx="2" fill="white" opacity="0.8"/>
    <rect x="-48" y="-12" width="4" height="8" rx="2" fill="#14b8a6"/>
    <rect x="-44" y="-12" width="4" height="8" rx="2" fill="#14b8a6"/>

    <!-- Destornillador -->
    <rect x="-5" y="-40" width="4" height="35" rx="2" fill="white" opacity="0.9"/>
    <rect x="-8" y="-45" width="10" height="8" rx="2" fill="white" opacity="0.7"/>
    <rect x="-6" y="-43" width="6" height="4" rx="1" fill="#14b8a6"/>

    <!-- Llave hexagonal -->
    <polygon points="15,-25 35,-25 40,-15 35,-5 15,-5 10,-15" fill="white" opacity="0.9"/>
    <polygon points="17,-20 33,-20 36,-15 33,-10 17,-10 14,-15" fill="#14b8a6"/>

    <!-- Allen key -->
    <rect x="20" y="10" width="3" height="25" rx="1.5" fill="white" opacity="0.9"/>
    <rect x="18" y="32" width="7" height="3" rx="1.5" fill="white" opacity="0.9"/>
  </g>

  <!-- Texto -->
  <text x="150" y="250" text-anchor="middle" fill="white" font-family="Arial, sans-serif" font-size="18" font-weight="bold">
    HERRAMIENTAS
  </text>
</svg>
