<!-- Placeholder SVG para Kit de Inicio de Ciclistas -->
<svg width="400" height="200" viewBox="0 0 400 200" xmlns="http://www.w3.org/2000/svg">
  <!-- Fondo gradiente -->
  <defs>
    <linearGradient id="kitGrad" x1="0%" y1="0%" x2="100%" y2="100%">
      <stop offset="0%" style="stop-color:#ffffff;stop-opacity:0.9" />
      <stop offset="100%" style="stop-color:#ffffff;stop-opacity:0.7" />
    </linearGradient>

    <radialGradient id="glow" cx="50%" cy="50%" r="50%">
      <stop offset="0%" style="stop-color:#ffffff;stop-opacity:0.3"/>
      <stop offset="100%" style="stop-color:#ffffff;stop-opacity:0.1"/>
    </radialGradient>
  </defs>

  <!-- Fondo con glow -->
  <rect width="400" height="200" fill="url(#glow)" rx="16"/>

  <!-- Contenedor principal -->
  <rect x="10" y="10" width="380" height="180" fill="url(#kitGrad)" rx="12" stroke="rgba(255,255,255,0.3)" stroke-width="2"/>

  <!-- Casco -->
  <g transform="translate(80, 100)">
    <path d="M-20 -15 Q-20 -25 0 -25 Q20 -25 20 -15 L18 10 Q18 12 15 12 L-15 12 Q-18 12 -18 10 Z" fill="rgba(255,255,255,0.9)"/>
    <path d="M-18 -10 L18 -10 L15 -5 L-15 -5 Z" fill="rgba(255,255,255,0.7)"/>
    <ellipse cx="-10" cy="-18" rx="4" ry="2" fill="rgba(255,255,255,0.5)"/>
    <ellipse cx="0" cy="-20" rx="4" ry="2" fill="rgba(255,255,255,0.5)"/>
    <ellipse cx="10" cy="-18" rx="4" ry="2" fill="rgba(255,255,255,0.5)"/>
  </g>

  <!-- Herramientas -->
  <g transform="translate(200, 100)">
    <rect x="-15" y="-2" width="20" height="4" rx="2" fill="rgba(255,255,255,0.9)"/>
    <rect x="-18" y="-4" width="6" height="8" rx="1" fill="rgba(255,255,255,0.8)"/>
    <rect x="-2" y="-20" width="2" height="15" rx="1" fill="rgba(255,255,255,0.9)"/>
    <rect x="-4" y="-22" width="6" height="4" rx="1" fill="rgba(255,255,255,0.7)"/>
  </g>

  <!-- Bolso/Mochila -->
  <g transform="translate(320, 100)">
    <rect x="-12" y="-12" width="24" height="20" rx="4" fill="rgba(255,255,255,0.9)"/>
    <rect x="-15" y="-8" width="3" height="12" rx="1.5" fill="rgba(255,255,255,0.7)"/>
    <rect x="12" y="-8" width="3" height="12" rx="1.5" fill="rgba(255,255,255,0.7)"/>
    <rect x="-8" y="-8" width="16" height="8" rx="2" fill="rgba(255,255,255,0.6)"/>
  </g>

  <!-- Título integrado -->
  <text x="200" y="40" text-anchor="middle" fill="rgba(255,255,255,0.9)" font-family="Arial, sans-serif" font-size="16" font-weight="bold">
    KIT COMPLETO
  </text>

  <!-- Precio -->
  <text x="200" y="170" text-anchor="middle" fill="rgba(255,255,255,0.95)" font-family="Arial, sans-serif" font-size="20" font-weight="bold">
    $99.999
  </text>

  <!-- Elementos decorativos -->
  <circle cx="50" cy="50" r="3" fill="rgba(255,255,255,0.4)"/>
  <circle cx="350" cy="50" r="4" fill="rgba(255,255,255,0.3)"/>
  <circle cx="50" cy="150" r="2" fill="rgba(255,255,255,0.5)"/>
  <circle cx="350" cy="150" r="3" fill="rgba(255,255,255,0.4)"/>
</svg>
