<!-- Placeholder SVG para categoría Seguridad -->
<svg width="300" height="300" viewBox="0 0 300 300" xmlns="http://www.w3.org/2000/svg">
  <!-- Fondo gradiente -->
  <defs>
    <linearGradient id="grad1" x1="0%" y1="0%" x2="100%" y2="100%">
      <stop offset="0%" style="stop-color:#3b82f6;stop-opacity:1" />
      <stop offset="100%" style="stop-color:#1e40af;stop-opacity:1" />
    </linearGradient>
  </defs>

  <rect width="300" height="300" fill="url(#grad1)"/>

  <!-- Patrón de fondo -->
  <g opacity="0.1">
    <circle cx="75" cy="75" r="20" fill="white"/>
    <circle cx="225" cy="75" r="15" fill="white"/>
    <circle cx="75" cy="225" r="15" fill="white"/>
    <circle cx="225" cy="225" r="20" fill="white"/>
  </g>

  <!-- Icono principal -->
  <g transform="translate(150, 150)">
    <!-- Casco -->
    <path d="M-40 -20 Q-40 -40 0 -40 Q40 -40 40 -20 L35 20 Q35 25 30 25 L-30 25 Q-35 25 -35 20 Z" fill="white" opacity="0.9"/>

    <!-- Visera -->
    <path d="M-35 -15 L35 -15 L30 -5 L-30 -5 Z" fill="white" opacity="0.7"/>

    <!-- Ventilación -->
    <ellipse cx="-20" cy="-25" rx="8" ry="4" fill="#3b82f6"/>
    <ellipse cx="0" cy="-30" rx="8" ry="4" fill="#3b82f6"/>
    <ellipse cx="20" cy="-25" rx="8" ry="4" fill="#3b82f6"/>
  </g>

  <!-- Texto -->
  <text x="150" y="250" text-anchor="middle" fill="white" font-family="Arial, sans-serif" font-size="18" font-weight="bold">
    SEGURIDAD
  </text>
</svg>
